<svg width="25" height="25" viewBox="0 0 25 25" fill="none" xmlns="http://www.w3.org/2000/svg">
<path d="M24.5428 11.4716C24.557 11.727 24.5712 11.9824 24.5712 12.2377C24.5712 15.0897 23.5567 17.7075 21.8682 19.7578C21.9108 19.6088 21.9462 19.4598 21.9746 19.3037C22.1236 18.4737 22.152 17.7359 22.0527 17.1045C22.2797 16.7852 22.4783 16.4305 22.6202 16.0687C22.8047 15.6218 23.0104 15.0826 23.1665 14.515C23.3367 13.8836 23.4432 13.2451 23.4786 12.5428C23.7482 12.4151 23.9894 12.1455 24.1739 11.9398C24.2023 11.9043 24.2306 11.8759 24.2519 11.8476C24.3583 11.727 24.4576 11.5993 24.5428 11.4716Z" fill="#ACF50D"/>
<path d="M21.3929 3.58265C23.7056 5.89541 24.9755 8.96727 24.9755 12.2378C24.9755 15.5083 23.7056 18.5801 21.3929 20.8929C19.0801 23.2056 16.0083 24.4755 12.7378 24.4755C9.46726 24.4755 6.39541 23.2056 4.08265 20.8929C1.76989 18.5801 0.5 15.5083 0.5 12.2378C0.5 8.96727 1.76989 5.89541 4.08265 3.58265C6.39541 1.26989 9.46726 0 12.7378 0C16.0083 0 19.0801 1.26989 21.3929 3.58265ZM24.5711 12.2378C24.5711 11.9824 24.564 11.727 24.5428 11.4716C24.4576 11.6064 24.3654 11.727 24.2519 11.8476C24.2306 11.876 24.2022 11.9043 24.1739 11.9398C23.9965 12.1455 23.7553 12.4151 23.4786 12.5428C23.4431 13.2452 23.3438 13.8837 23.1665 14.5151C23.0104 15.0897 22.8046 15.6218 22.6202 16.0687C22.4712 16.4234 22.2797 16.7853 22.0526 17.1045C22.1449 17.7359 22.1165 18.4808 21.9746 19.3037C21.9462 19.4598 21.9108 19.6088 21.8682 19.7578C23.5566 17.7146 24.5711 15.0897 24.5711 12.2378ZM22.9252 14.4441C23.1097 13.7701 23.209 13.0891 23.2374 12.3158C23.0317 11.4077 22.4712 10.5138 21.9959 9.95339C21.6979 9.60576 21.2652 9.18719 20.8821 8.87504C20.0449 9.0595 19.1794 9.25814 18.3352 9.49225C18.1224 9.54901 17.9095 9.62704 17.6967 9.69799C17.5052 9.76893 17.3065 9.83278 17.1079 9.88954C16.8028 12.0675 16.4268 12.784 15.8096 13.9688C15.7174 14.1462 15.6181 14.3306 15.5187 14.5363C15.689 14.7208 15.8451 14.9407 15.9941 15.1394C16.0721 15.2458 16.1501 15.3451 16.2211 15.4373C16.9021 16.2886 17.491 17.2606 17.9379 18.2609C18.1507 18.2467 18.3139 18.197 18.5055 18.1332C18.6261 18.0977 18.7609 18.0551 18.9169 18.0197C19.8392 17.8068 20.8821 17.5727 21.7618 17.069C22.0101 16.7356 22.23 16.3525 22.3861 15.9694C22.5634 15.5296 22.7692 15.0046 22.9252 14.4441ZM21.3858 4.29209C21.4567 4.32756 21.5277 4.36303 21.5986 4.4056C20.1301 2.74552 18.2075 1.49691 16.0224 0.865512C16.2778 1.05706 16.5049 1.29117 16.7035 1.54657C16.7035 1.54657 16.7035 1.54657 16.7106 1.54657C16.7744 1.55366 16.8454 1.56076 16.9163 1.56076C17.0227 1.56076 17.1363 1.56785 17.2498 1.59623C17.5903 1.67427 17.9308 1.80906 18.3068 2.02899L18.3991 2.07865C18.995 2.42627 19.6051 2.78808 20.0875 3.27759C20.3358 3.5259 20.5415 3.80258 20.7047 4.09344C20.9459 4.11473 21.1517 4.17858 21.3858 4.29209ZM20.8324 8.61255C21.0807 7.94568 21.1871 7.32847 21.1517 6.76092C21.1304 6.44168 21.0523 6.11534 20.9814 5.80319C20.9459 5.64002 20.9034 5.46975 20.875 5.29949C20.7473 4.61133 20.4138 3.97284 19.9031 3.46205C19.4419 3.00091 18.846 2.6462 18.2714 2.30567L18.1791 2.25601C17.8244 2.05027 17.5123 1.92257 17.2001 1.85163C17.1079 1.83034 17.0157 1.83034 16.9092 1.82325C16.8383 1.82325 16.7603 1.82325 16.6893 1.80906C16.2282 1.80906 15.8096 1.94385 15.3556 2.07155L15.2917 2.09284C15.1711 2.12831 15.0647 2.15669 14.9654 2.19216C14.0857 2.44755 13.809 2.52559 12.8726 3.12152C12.8726 3.36982 12.8867 3.61812 12.9009 3.86643C12.9151 4.16439 12.9293 4.46945 12.9293 4.76741V4.79579C12.9293 5.39171 12.9293 6.00183 12.9648 6.61194C14.7313 7.42779 15.5755 8.13013 17.0015 9.66252C17.2072 9.60576 17.4129 9.53482 17.6116 9.46387C17.8244 9.38584 18.0443 9.31489 18.2643 9.25104C19.1156 9.01693 19.9882 8.81829 20.8324 8.63383V8.61255ZM17.4342 18.9419C17.5548 18.6865 17.6187 18.5447 17.6187 18.1828C17.1859 17.2606 16.6397 16.3738 16.0153 15.5863C15.9444 15.4941 15.8664 15.3948 15.7883 15.2812C15.6464 15.0897 15.4975 14.8911 15.3414 14.7137C14.1921 14.9762 13.3337 15.0968 12.4327 15.0968C11.5317 15.0968 11.0067 15.0188 10.1058 14.8698C10.0135 15.0117 9.9213 15.1465 9.83617 15.2883C9.74394 15.4373 9.62334 15.636 9.48854 15.8701C9.01322 16.6717 8.29669 17.8636 7.9136 18.4028C8.21866 19.6301 9.36794 21.1696 10.276 21.9216C10.9642 22.0847 11.7445 22.1699 12.6597 22.1699H12.6739C13.4898 22.1699 14.334 22.0989 15.2633 21.9429C15.611 21.6733 15.7883 21.4391 16.0153 21.1483C16.1076 21.0277 16.2069 20.9 16.3204 20.7581C16.739 20.2544 17.0653 19.8074 17.2852 19.2612C17.342 19.1264 17.3917 19.02 17.4342 18.9277V18.9419ZM17.0298 23.2624C16.1998 23.007 15.5542 22.5175 15.2633 22.2195C14.334 22.3685 13.4827 22.4395 12.6668 22.4395H12.6526C11.7162 22.4395 10.9145 22.3543 10.198 22.1841C9.61624 22.709 9.46726 22.8296 8.60175 23.1205C8.48824 23.156 8.38892 23.1844 8.29669 23.2056C9.673 23.7661 11.1699 24.0712 12.7449 24.0712C14.3198 24.0712 15.7032 23.7874 17.0369 23.2624H17.0298ZM12.7023 6.63323C12.6668 6.01602 12.6668 5.39881 12.6668 4.78869V4.76031C12.6668 4.46945 12.6526 4.16439 12.6384 3.87352C12.6242 3.61103 12.6172 3.34144 12.6101 3.07186C12.4327 2.94416 12.2341 2.83065 12.0496 2.72423C11.5317 2.43337 10.9925 2.24891 10.3115 2.10702C9.68719 1.97933 9.08417 1.90129 8.46696 1.86582C8.11224 1.98642 7.79299 2.12121 7.46665 2.32695C6.58695 2.87322 5.95556 3.36982 5.41639 3.93028C5.11842 4.24243 4.84174 4.60424 4.61472 4.97315C4.43027 5.5336 4.45155 5.79609 4.50121 6.35655C4.50121 6.40621 4.50831 6.46296 4.5154 6.51972C4.57925 7.3001 4.72114 7.97406 4.92688 8.52032C5.17518 8.54161 5.43767 8.59127 5.70016 8.65512C6.68628 8.91051 7.65111 9.24395 8.58047 9.64833C8.97775 9.24395 9.11254 9.14463 9.39632 8.94599C9.51692 8.86085 9.65881 8.76153 9.86455 8.60546C10.2973 8.27912 10.5811 8.0521 10.801 7.87474C11.3756 7.4207 11.5388 7.293 12.7023 6.62613V6.63323ZM9.60915 15.1677C9.70138 15.0188 9.8007 14.8698 9.90002 14.7208C9.32537 13.7489 9.02032 12.7415 8.80039 11.8831C8.67269 11.3794 8.52371 10.599 8.47405 9.88244C7.55888 9.48516 6.61533 9.15882 5.64341 8.90342C5.38091 8.83957 5.11842 8.78991 4.87012 8.76863C4.47993 9.00984 4.04718 9.49225 3.91948 9.63414C3.49382 10.1236 3.02559 10.6983 2.73472 11.2942C2.59283 11.5875 2.5077 11.8405 2.47932 12.0533C2.47223 12.1243 2.45804 12.2094 2.44385 12.3229H2.42966C2.42966 12.3868 2.42966 12.4577 2.42257 12.5286C2.40838 12.7698 2.40129 13.0181 2.41548 13.2239C2.52189 14.664 3.06106 16.1751 3.84144 17.3386C4.2671 17.5727 4.67148 17.672 5.13971 17.7856C5.23903 17.8068 5.33835 17.8352 5.43767 17.8636C6.18258 18.0551 6.92748 18.1828 7.70786 18.2467C8.08386 17.7075 8.7862 16.5299 9.26153 15.7353C9.40341 15.5012 9.51692 15.3025 9.60915 15.1535V15.1677ZM9.63753 21.8932C9.65881 21.8364 9.63043 21.7726 9.58786 21.7442L9.49564 21.9783C9.5453 21.9854 9.60915 21.957 9.63043 21.8932H9.63753ZM8.2825 1.64589C8.38892 1.42597 8.5379 1.2557 8.69398 1.10672C6.48054 1.91548 4.57216 3.36982 3.19585 5.24273C3.55767 5.02281 3.98333 4.83835 4.40899 4.80998C4.6431 4.42688 4.92688 4.05797 5.23193 3.74582C5.7782 3.17827 6.44507 2.65329 7.32477 2.09993C7.64401 1.90129 7.94907 1.7594 8.27541 1.64589H8.2825ZM3.35902 18.8001C3.37321 18.3176 3.40159 17.8778 3.60733 17.4734C2.72763 16.1539 2.24521 14.5222 2.15298 13.2523C2.1388 13.0323 2.15298 12.7698 2.15298 12.5215C2.15298 12.479 2.15298 12.4364 2.15298 12.3938C1.91178 12.3371 1.78408 12.2307 1.64928 12.1243L1.62091 12.103C1.35132 11.8831 1.11721 11.5567 0.93985 11.1665C0.911472 11.5212 0.890189 11.876 0.890189 12.2307C0.890189 14.9904 1.84083 17.5302 3.42997 19.545C3.37321 19.3179 3.33774 19.0696 3.34484 18.793L3.35902 18.8001Z" fill="#211915"/>
<path d="M23.2304 12.3229C23.2091 13.0891 23.1027 13.7772 22.9182 14.4512C22.7621 15.0117 22.5635 15.5366 22.379 15.9765C22.223 16.3596 22.003 16.7427 21.7547 17.0761C20.8821 17.5798 19.8393 17.8139 18.9099 18.0268C18.7467 18.0622 18.6119 18.1048 18.4984 18.1403C18.3069 18.197 18.1366 18.2467 17.9309 18.268C17.4839 17.2606 16.8951 16.2957 16.214 15.4444C16.1431 15.3593 16.0722 15.26 15.987 15.1465C15.838 14.9478 15.6749 14.7279 15.5117 14.5434C15.611 14.3377 15.7103 14.1533 15.8026 13.9759C16.4198 12.7911 16.7958 12.0746 17.1008 9.89663C17.2995 9.83988 17.4981 9.76894 17.6897 9.70509C17.8954 9.63414 18.1153 9.55611 18.3282 9.49935C19.1653 9.26524 20.0308 9.07369 20.875 8.88214C21.2581 9.19429 21.6909 9.61286 21.9889 9.96048C22.4642 10.5209 23.0246 11.4148 23.2304 12.3229Z" fill="#ACF50D"/>
<path d="M21.5986 4.41264C21.5276 4.37717 21.4567 4.3417 21.3858 4.29913C21.1516 4.18562 20.9459 4.12177 20.7047 4.10049C20.5415 3.80253 20.3287 3.53294 20.0875 3.28464C19.6051 2.79513 18.995 2.43332 18.399 2.08569L18.3068 2.03603C17.9308 1.81611 17.5974 1.67422 17.2497 1.60328C17.1362 1.58199 17.0227 1.5749 16.9163 1.56781C16.8454 1.56781 16.7744 1.56781 16.7106 1.55362C16.7106 1.55362 16.7106 1.55362 16.7035 1.55362C16.5119 1.29822 16.2778 1.06411 16.0224 0.872559C18.2075 1.50396 20.1301 2.75256 21.5986 4.41264Z" fill="#ACF50D"/>
<path d="M21.1446 6.76795C21.18 7.33549 21.0736 7.9598 20.8253 8.61957C19.974 8.80403 19.1085 9.00267 18.2572 9.23678C18.0372 9.30063 17.8173 9.37867 17.6045 9.44961C17.4058 9.52056 17.2001 9.5915 16.9944 9.64826C15.5684 8.11587 14.7242 7.41353 12.9577 6.59768C12.9222 5.99466 12.9222 5.38455 12.9222 4.78153V4.75315C12.9222 4.45518 12.908 4.15013 12.8938 3.85216C12.8796 3.60386 12.8725 3.35556 12.8654 3.10726C13.809 2.51133 14.0786 2.43329 14.9583 2.1779C15.0576 2.14952 15.1711 2.11405 15.2846 2.07857L15.3485 2.05729C15.7954 1.9225 16.2211 1.80189 16.6822 1.7948C16.7531 1.80189 16.8312 1.80899 16.9021 1.80899C17.0085 1.80899 17.1008 1.81608 17.193 1.83737C17.5051 1.90831 17.8173 2.03601 18.172 2.24174L18.2642 2.2914C18.8389 2.63193 19.4419 2.97956 19.8959 3.44779C20.3996 3.95858 20.7402 4.59707 20.8679 5.28522C20.8962 5.45549 20.9388 5.62575 20.9743 5.78892C21.0452 6.10108 21.1233 6.42742 21.1446 6.74666V6.76795Z" fill="#ACF50D"/>
<path d="M17.6187 18.1898C17.6187 18.5517 17.5549 18.6865 17.4343 18.9489C17.3917 19.0412 17.342 19.1476 17.2853 19.2824C17.0654 19.8286 16.739 20.2756 16.3205 20.7793C16.1999 20.9212 16.1076 21.0489 16.0154 21.1695C15.7884 21.4603 15.611 21.6945 15.2634 21.964C14.3411 22.113 13.4898 22.1911 12.674 22.1911H12.6598C11.7517 22.1911 10.9713 22.1059 10.2761 21.9428C9.36089 21.1908 8.21869 19.6513 7.91364 18.424C8.28964 17.8848 9.00617 16.6858 9.48858 15.8913C9.62338 15.6572 9.74398 15.4585 9.83621 15.3095C9.92134 15.1747 10.0136 15.0329 10.1058 14.891C11.0068 15.04 11.7304 15.118 12.4327 15.118C13.1351 15.118 14.1992 14.9903 15.3414 14.7349C15.4975 14.9123 15.6465 15.1109 15.7884 15.3024C15.8664 15.4089 15.9445 15.5153 16.0154 15.6075C16.6468 16.395 17.1931 17.2818 17.6187 18.204V18.1898Z" fill="#ACF50D"/>
<path d="M15.2634 22.2265C15.5542 22.5245 16.1927 23.014 17.0299 23.2694C15.6961 23.7873 14.2489 24.0782 12.7378 24.0782C11.2267 24.0782 9.66593 23.7731 8.28962 23.2127C8.38185 23.1914 8.48117 23.1701 8.59468 23.1275C9.46728 22.8367 9.61626 22.7161 10.1909 22.1911C10.9074 22.3613 11.7091 22.4465 12.6456 22.4465H12.6597C13.4756 22.4465 14.3269 22.3755 15.2563 22.2265H15.2634Z" fill="#ACF50D"/>
<path d="M12.6597 4.7957C12.6597 5.40581 12.6597 6.02302 12.6952 6.64023C11.5317 7.3071 11.3685 7.44189 10.7939 7.88884C10.5669 8.06619 10.2831 8.29321 9.85743 8.61955C9.6517 8.77563 9.50981 8.87495 9.38921 8.96008C9.11253 9.15873 8.97064 9.25805 8.57335 9.66243C7.64399 9.25805 6.67916 8.92461 5.69304 8.66922C5.43055 8.59827 5.16806 8.55571 4.91976 8.53442C4.71402 7.98106 4.57213 7.3071 4.50828 6.53381C4.50828 6.47706 4.50119 6.4203 4.49409 6.37064C4.44443 5.81019 4.42315 5.5477 4.6076 4.98724C4.83462 4.61124 5.1113 4.24943 5.40927 3.94437C5.94844 3.38392 6.57984 2.88731 7.45954 2.34105C7.78588 2.13531 8.10513 1.99342 8.45984 1.87991C9.07705 1.91539 9.68008 1.99342 10.3044 2.12112C10.9925 2.26301 11.5317 2.45456 12.0425 2.73833C12.227 2.84475 12.4256 2.95116 12.603 3.08595C12.603 3.35554 12.6171 3.62513 12.6313 3.88762C12.6455 4.17849 12.6597 4.48354 12.6597 4.77441V4.80279V4.7957Z" fill="#ACF50D"/>
<path d="M9.89297 14.7278C9.79364 14.8768 9.69432 15.0258 9.6021 15.1748C9.50987 15.3237 9.38927 15.5224 9.25447 15.7565C8.77915 16.5511 8.07681 17.7287 7.70081 18.2679C6.92043 18.2041 6.17552 18.0764 5.43061 17.8848C5.33129 17.8564 5.23197 17.8352 5.13265 17.8068C4.66442 17.6933 4.26004 17.5939 3.83438 17.3598C3.054 16.1964 2.51483 14.6853 2.40841 13.2451C2.39423 13.0394 2.40842 12.7911 2.41551 12.5499C2.41551 12.4789 2.41551 12.408 2.4226 12.3441H2.43679C2.45098 12.2377 2.46517 12.1526 2.47226 12.0816C2.50064 11.8688 2.58577 11.6158 2.72766 11.3225C3.01144 10.7266 3.48676 10.1449 3.91242 9.66245C4.04012 9.52056 4.46578 9.03814 4.86306 8.79694C5.11137 8.81822 5.37386 8.86079 5.63635 8.93173C6.60828 9.18003 7.55892 9.51347 8.467 9.91075C8.51666 10.6273 8.66564 11.4077 8.79334 11.9114C9.01326 12.7698 9.31832 13.7701 9.89297 14.7491V14.7278Z" fill="#ACF50D"/>
<path d="M9.58075 21.7583C9.62332 21.7866 9.6517 21.8434 9.63041 21.9073C9.60913 21.9711 9.54528 21.9995 9.49562 21.9924L9.58785 21.7583H9.58075Z" fill="#211915"/>
<path d="M8.68689 1.12079C8.53081 1.26268 8.38183 1.44003 8.27542 1.65996C7.94908 1.78056 7.63692 1.91536 7.32477 2.114C6.43798 2.66736 5.7782 3.19234 5.23194 3.75989C4.92688 4.07914 4.6431 4.44095 4.40899 4.82404C3.98333 4.85242 3.55767 5.03688 3.19585 5.2568C4.57216 3.38389 6.48054 1.92955 8.69398 1.12079H8.68689Z" fill="#ACF50D"/>
<path d="M3.60021 17.4805C3.39448 17.8848 3.3661 18.3247 3.35191 18.8071C3.34482 19.0767 3.38029 19.325 3.43704 19.5591C1.84791 17.5443 0.897263 15.0045 0.897263 12.2448C0.897263 9.48512 0.911451 11.5283 0.946923 11.1807C1.12428 11.5709 1.36549 11.9043 1.62798 12.1171L1.65636 12.1384C1.79115 12.2448 1.91885 12.3512 2.16006 12.408C2.16006 12.4506 2.16006 12.4931 2.16006 12.5357C2.14587 12.784 2.13877 13.0394 2.16006 13.2664C2.25228 14.5363 2.7347 16.168 3.6144 17.4876L3.60021 17.4805Z" fill="#ACF50D"/>
</svg>
