<svg width="173" height="15" viewBox="0 0 173 15" fill="none" xmlns="http://www.w3.org/2000/svg">
<path d="M7.272 14.054C6.372 14.054 5.538 13.892 4.77 13.568C4.002 13.244 3.33 12.794 2.754 12.218C2.178 11.63 1.728 10.952 1.404 10.184C1.092 9.416 0.936 8.588 0.936 7.7C0.936 6.812 1.098 5.984 1.422 5.216C1.746 4.448 2.196 3.776 2.772 3.2C3.348 2.612 4.02 2.156 4.788 1.832C5.568 1.508 6.408 1.346 7.308 1.346C8.208 1.346 9.042 1.508 9.81 1.832C10.59 2.144 11.262 2.588 11.826 3.164C12.402 3.74 12.846 4.412 13.158 5.18C13.482 5.936 13.644 6.764 13.644 7.664C13.644 8.564 13.482 9.404 13.158 10.184C12.834 10.952 12.378 11.63 11.79 12.218C11.214 12.794 10.542 13.244 9.774 13.568C9.006 13.892 8.172 14.054 7.272 14.054ZM7.254 13.388C8.07 13.388 8.82 13.244 9.504 12.956C10.188 12.656 10.788 12.248 11.304 11.732C11.832 11.216 12.24 10.61 12.528 9.914C12.816 9.206 12.96 8.456 12.96 7.664C12.96 6.86 12.816 6.116 12.528 5.432C12.252 4.748 11.856 4.148 11.34 3.632C10.836 3.116 10.236 2.72 9.54 2.444C8.856 2.156 8.112 2.012 7.308 2.012C6.492 2.012 5.736 2.156 5.04 2.444C4.344 2.732 3.738 3.14 3.222 3.668C2.718 4.184 2.322 4.784 2.034 5.468C1.746 6.152 1.602 6.896 1.602 7.7C1.602 8.492 1.746 9.236 2.034 9.932C2.322 10.616 2.718 11.222 3.222 11.75C3.738 12.266 4.338 12.668 5.022 12.956C5.718 13.244 6.462 13.388 7.254 13.388ZM7.434 11.444C6.714 11.444 6.072 11.288 5.508 10.976C4.944 10.652 4.5 10.208 4.176 9.644C3.852 9.08 3.69 8.432 3.69 7.7C3.69 6.968 3.852 6.32 4.176 5.756C4.5 5.192 4.944 4.754 5.508 4.442C6.072 4.118 6.714 3.956 7.434 3.956C8.046 3.956 8.598 4.082 9.09 4.334C9.594 4.574 9.996 4.91 10.296 5.342L9.522 5.918C9.27 5.57 8.964 5.312 8.604 5.144C8.244 4.976 7.848 4.892 7.416 4.892C6.9 4.892 6.438 5.012 6.03 5.252C5.634 5.48 5.316 5.804 5.076 6.224C4.836 6.644 4.716 7.136 4.716 7.7C4.716 8.264 4.836 8.756 5.076 9.176C5.316 9.596 5.634 9.926 6.03 10.166C6.438 10.394 6.9 10.508 7.416 10.508C7.848 10.508 8.244 10.424 8.604 10.256C8.964 10.088 9.27 9.83 9.522 9.482L10.296 10.04C9.996 10.484 9.594 10.832 9.09 11.084C8.598 11.324 8.046 11.444 7.434 11.444ZM26.7896 14.108C25.8416 14.108 24.9656 13.952 24.1616 13.64C23.3576 13.316 22.6616 12.866 22.0736 12.29C21.4856 11.714 21.0236 11.036 20.6876 10.256C20.3636 9.476 20.2016 8.624 20.2016 7.7C20.2016 6.776 20.3636 5.924 20.6876 5.144C21.0236 4.364 21.4856 3.686 22.0736 3.11C22.6736 2.534 23.3756 2.09 24.1796 1.778C24.9836 1.454 25.8596 1.292 26.8076 1.292C27.7196 1.292 28.5776 1.448 29.3816 1.76C30.1856 2.06 30.8636 2.516 31.4156 3.128L30.5696 3.974C30.0536 3.446 29.4836 3.068 28.8596 2.84C28.2356 2.6 27.5636 2.48 26.8436 2.48C26.0876 2.48 25.3856 2.612 24.7376 2.876C24.0896 3.128 23.5256 3.494 23.0456 3.974C22.5656 4.442 22.1876 4.994 21.9116 5.63C21.6476 6.254 21.5156 6.944 21.5156 7.7C21.5156 8.456 21.6476 9.152 21.9116 9.788C22.1876 10.412 22.5656 10.964 23.0456 11.444C23.5256 11.912 24.0896 12.278 24.7376 12.542C25.3856 12.794 26.0876 12.92 26.8436 12.92C27.5636 12.92 28.2356 12.8 28.8596 12.56C29.4836 12.32 30.0536 11.936 30.5696 11.408L31.4156 12.254C30.8636 12.866 30.1856 13.328 29.3816 13.64C28.5776 13.952 27.7136 14.108 26.7896 14.108ZM39.7665 14V11.912L39.7125 11.57V8.078C39.7125 7.274 39.4845 6.656 39.0285 6.224C38.5845 5.792 37.9185 5.576 37.0305 5.576C36.4185 5.576 35.8365 5.678 35.2845 5.882C34.7325 6.086 34.2645 6.356 33.8805 6.692L33.3045 5.738C33.7845 5.33 34.3605 5.018 35.0325 4.802C35.7045 4.574 36.4125 4.46 37.1565 4.46C38.3805 4.46 39.3225 4.766 39.9825 5.378C40.6545 5.978 40.9905 6.896 40.9905 8.132V14H39.7665ZM36.5085 14.09C35.8005 14.09 35.1825 13.976 34.6545 13.748C34.1385 13.508 33.7425 13.184 33.4665 12.776C33.1905 12.356 33.0525 11.876 33.0525 11.336C33.0525 10.844 33.1665 10.4 33.3945 10.004C33.6345 9.596 34.0185 9.272 34.5465 9.032C35.0865 8.78 35.8065 8.654 36.7065 8.654H39.9645V9.608H36.7425C35.8305 9.608 35.1945 9.77 34.8345 10.094C34.4865 10.418 34.3125 10.82 34.3125 11.3C34.3125 11.84 34.5225 12.272 34.9425 12.596C35.3625 12.92 35.9505 13.082 36.7065 13.082C37.4265 13.082 38.0445 12.92 38.5605 12.596C39.0885 12.26 39.4725 11.78 39.7125 11.156L40.0005 12.038C39.7605 12.662 39.3405 13.16 38.7405 13.532C38.1525 13.904 37.4085 14.09 36.5085 14.09ZM49.2857 4.46C50.0537 4.46 50.7257 4.61 51.3017 4.91C51.8897 5.198 52.3457 5.642 52.6697 6.242C53.0057 6.842 53.1737 7.598 53.1737 8.51V14H51.8957V8.636C51.8957 7.64 51.6437 6.89 51.1397 6.386C50.6477 5.87 49.9517 5.612 49.0517 5.612C48.3797 5.612 47.7917 5.75 47.2877 6.026C46.7957 6.29 46.4117 6.68 46.1357 7.196C45.8717 7.7 45.7397 8.312 45.7397 9.032V14H44.4617V4.55H45.6857V7.142L45.4877 6.656C45.7877 5.972 46.2677 5.438 46.9277 5.054C47.5877 4.658 48.3737 4.46 49.2857 4.46ZM60.5498 14.09C59.6138 14.09 58.7738 13.886 58.0298 13.478C57.2978 13.058 56.7218 12.488 56.3018 11.768C55.8818 11.036 55.6718 10.202 55.6718 9.266C55.6718 8.318 55.8818 7.484 56.3018 6.764C56.7218 6.044 57.2978 5.48 58.0298 5.072C58.7738 4.664 59.6138 4.46 60.5498 4.46C61.3538 4.46 62.0798 4.616 62.7278 4.928C63.3758 5.24 63.8858 5.708 64.2578 6.332L63.3038 6.98C62.9798 6.5 62.5778 6.146 62.0978 5.918C61.6178 5.69 61.0958 5.576 60.5318 5.576C59.8598 5.576 59.2538 5.732 58.7138 6.044C58.1738 6.344 57.7478 6.77 57.4358 7.322C57.1238 7.874 56.9678 8.522 56.9678 9.266C56.9678 10.01 57.1238 10.658 57.4358 11.21C57.7478 11.762 58.1738 12.194 58.7138 12.506C59.2538 12.806 59.8598 12.956 60.5318 12.956C61.0958 12.956 61.6178 12.842 62.0978 12.614C62.5778 12.386 62.9798 12.038 63.3038 11.57L64.2578 12.218C63.8858 12.83 63.3758 13.298 62.7278 13.622C62.0798 13.934 61.3538 14.09 60.5498 14.09ZM71.4517 4.46C72.2197 4.46 72.8917 4.61 73.4677 4.91C74.0557 5.198 74.5117 5.642 74.8357 6.242C75.1717 6.842 75.3397 7.598 75.3397 8.51V14H74.0617V8.636C74.0617 7.64 73.8097 6.89 73.3057 6.386C72.8137 5.87 72.1177 5.612 71.2177 5.612C70.5457 5.612 69.9577 5.75 69.4537 6.026C68.9617 6.29 68.5777 6.68 68.3017 7.196C68.0377 7.7 67.9057 8.312 67.9057 9.032V14H66.6277V0.643999H67.9057V7.142L67.6537 6.656C67.9537 5.972 68.4337 5.438 69.0937 5.054C69.7537 4.658 70.5397 4.46 71.4517 4.46ZM84.7138 14V11.912L84.6598 11.57V8.078C84.6598 7.274 84.4318 6.656 83.9758 6.224C83.5318 5.792 82.8658 5.576 81.9778 5.576C81.3658 5.576 80.7838 5.678 80.2318 5.882C79.6798 6.086 79.2118 6.356 78.8278 6.692L78.2518 5.738C78.7318 5.33 79.3078 5.018 79.9798 4.802C80.6518 4.574 81.3598 4.46 82.1038 4.46C83.3278 4.46 84.2698 4.766 84.9298 5.378C85.6018 5.978 85.9378 6.896 85.9378 8.132V14H84.7138ZM81.4558 14.09C80.7478 14.09 80.1298 13.976 79.6018 13.748C79.0858 13.508 78.6898 13.184 78.4138 12.776C78.1378 12.356 77.9998 11.876 77.9998 11.336C77.9998 10.844 78.1138 10.4 78.3418 10.004C78.5818 9.596 78.9658 9.272 79.4938 9.032C80.0338 8.78 80.7538 8.654 81.6538 8.654H84.9118V9.608H81.6898C80.7778 9.608 80.1418 9.77 79.7818 10.094C79.4338 10.418 79.2598 10.82 79.2598 11.3C79.2598 11.84 79.4698 12.272 79.8898 12.596C80.3098 12.92 80.8978 13.082 81.6538 13.082C82.3738 13.082 82.9918 12.92 83.5078 12.596C84.0358 12.26 84.4198 11.78 84.6598 11.156L84.9478 12.038C84.7078 12.662 84.2878 13.16 83.6878 13.532C83.0998 13.904 82.3558 14.09 81.4558 14.09ZM89.625 14V3.362C89.625 2.522 89.871 1.844 90.363 1.328C90.855 0.811999 91.563 0.553999 92.487 0.553999C92.847 0.553999 93.195 0.601999 93.531 0.698C93.867 0.794 94.149 0.944 94.377 1.148L93.945 2.102C93.765 1.946 93.555 1.832 93.315 1.76C93.075 1.676 92.817 1.634 92.541 1.634C92.001 1.634 91.587 1.784 91.299 2.084C91.011 2.384 90.867 2.828 90.867 3.416V4.856L90.903 5.45V14H89.625ZM87.933 5.612V4.55H93.783V5.612H87.933ZM101.255 14V11.912L101.201 11.57V8.078C101.201 7.274 100.973 6.656 100.517 6.224C100.073 5.792 99.4068 5.576 98.5188 5.576C97.9068 5.576 97.3248 5.678 96.7728 5.882C96.2208 6.086 95.7528 6.356 95.3688 6.692L94.7928 5.738C95.2728 5.33 95.8488 5.018 96.5208 4.802C97.1928 4.574 97.9008 4.46 98.6448 4.46C99.8688 4.46 100.811 4.766 101.471 5.378C102.143 5.978 102.479 6.896 102.479 8.132V14H101.255ZM97.9968 14.09C97.2888 14.09 96.6708 13.976 96.1428 13.748C95.6268 13.508 95.2308 13.184 94.9548 12.776C94.6788 12.356 94.5408 11.876 94.5408 11.336C94.5408 10.844 94.6548 10.4 94.8828 10.004C95.1228 9.596 95.5068 9.272 96.0348 9.032C96.5748 8.78 97.2948 8.654 98.1948 8.654H101.453V9.608H98.2308C97.3188 9.608 96.6828 9.77 96.3228 10.094C95.9748 10.418 95.8008 10.82 95.8008 11.3C95.8008 11.84 96.0108 12.272 96.4308 12.596C96.8508 12.92 97.4388 13.082 98.1948 13.082C98.9148 13.082 99.5328 12.92 100.049 12.596C100.577 12.26 100.961 11.78 101.201 11.156L101.489 12.038C101.249 12.662 100.829 13.16 100.229 13.532C99.6408 13.904 98.8968 14.09 97.9968 14.09ZM109.874 14.09C108.938 14.09 108.098 13.886 107.354 13.478C106.622 13.058 106.046 12.488 105.626 11.768C105.206 11.036 104.996 10.202 104.996 9.266C104.996 8.318 105.206 7.484 105.626 6.764C106.046 6.044 106.622 5.48 107.354 5.072C108.098 4.664 108.938 4.46 109.874 4.46C110.678 4.46 111.404 4.616 112.052 4.928C112.7 5.24 113.21 5.708 113.582 6.332L112.628 6.98C112.304 6.5 111.902 6.146 111.422 5.918C110.942 5.69 110.42 5.576 109.856 5.576C109.184 5.576 108.578 5.732 108.038 6.044C107.498 6.344 107.072 6.77 106.76 7.322C106.448 7.874 106.292 8.522 106.292 9.266C106.292 10.01 106.448 10.658 106.76 11.21C107.072 11.762 107.498 12.194 108.038 12.506C108.578 12.806 109.184 12.956 109.856 12.956C110.42 12.956 110.942 12.842 111.422 12.614C111.902 12.386 112.304 12.038 112.628 11.57L113.582 12.218C113.21 12.83 112.7 13.298 112.052 13.622C111.404 13.934 110.678 14.09 109.874 14.09ZM115.952 14V4.55H117.23V14H115.952ZM116.6 2.462C116.336 2.462 116.114 2.372 115.934 2.192C115.754 2.012 115.664 1.796 115.664 1.544C115.664 1.292 115.754 1.082 115.934 0.913999C116.114 0.733999 116.336 0.643999 116.6 0.643999C116.864 0.643999 117.086 0.727999 117.266 0.895999C117.446 1.064 117.536 1.274 117.536 1.526C117.536 1.79 117.446 2.012 117.266 2.192C117.098 2.372 116.876 2.462 116.6 2.462ZM120.786 14V0.643999H122.064V14H120.786ZM129.251 14V13.082L134.489 7.952C134.969 7.484 135.329 7.076 135.569 6.728C135.809 6.368 135.971 6.032 136.055 5.72C136.139 5.408 136.181 5.114 136.181 4.838C136.181 4.106 135.929 3.53 135.425 3.11C134.933 2.69 134.201 2.48 133.229 2.48C132.485 2.48 131.825 2.594 131.249 2.822C130.685 3.05 130.199 3.404 129.791 3.884L128.873 3.092C129.365 2.516 129.995 2.072 130.763 1.76C131.531 1.448 132.389 1.292 133.337 1.292C134.189 1.292 134.927 1.43 135.551 1.706C136.175 1.97 136.655 2.36 136.991 2.876C137.339 3.392 137.513 3.998 137.513 4.694C137.513 5.102 137.453 5.504 137.333 5.9C137.225 6.296 137.021 6.716 136.721 7.16C136.433 7.592 136.007 8.084 135.443 8.636L130.637 13.352L130.277 12.848H138.089V14H129.251ZM144.702 14.108C143.73 14.108 142.866 13.856 142.11 13.352C141.354 12.836 140.76 12.104 140.328 11.156C139.896 10.196 139.68 9.044 139.68 7.7C139.68 6.356 139.896 5.21 140.328 4.262C140.76 3.302 141.354 2.57 142.11 2.066C142.866 1.55 143.73 1.292 144.702 1.292C145.674 1.292 146.538 1.55 147.294 2.066C148.05 2.57 148.644 3.302 149.076 4.262C149.52 5.21 149.742 6.356 149.742 7.7C149.742 9.044 149.52 10.196 149.076 11.156C148.644 12.104 148.05 12.836 147.294 13.352C146.538 13.856 145.674 14.108 144.702 14.108ZM144.702 12.92C145.446 12.92 146.094 12.722 146.646 12.326C147.198 11.918 147.63 11.33 147.942 10.562C148.254 9.782 148.41 8.828 148.41 7.7C148.41 6.572 148.254 5.624 147.942 4.856C147.63 4.076 147.198 3.488 146.646 3.092C146.094 2.684 145.446 2.48 144.702 2.48C143.982 2.48 143.34 2.684 142.776 3.092C142.212 3.488 141.774 4.076 141.462 4.856C141.15 5.624 140.994 6.572 140.994 7.7C140.994 8.828 141.15 9.782 141.462 10.562C141.774 11.33 142.212 11.918 142.776 12.326C143.34 12.722 143.982 12.92 144.702 12.92ZM151.364 14V13.082L156.602 7.952C157.082 7.484 157.442 7.076 157.682 6.728C157.922 6.368 158.084 6.032 158.168 5.72C158.252 5.408 158.294 5.114 158.294 4.838C158.294 4.106 158.042 3.53 157.538 3.11C157.046 2.69 156.314 2.48 155.342 2.48C154.598 2.48 153.938 2.594 153.362 2.822C152.798 3.05 152.312 3.404 151.904 3.884L150.986 3.092C151.478 2.516 152.108 2.072 152.876 1.76C153.644 1.448 154.502 1.292 155.45 1.292C156.302 1.292 157.04 1.43 157.664 1.706C158.288 1.97 158.768 2.36 159.104 2.876C159.452 3.392 159.626 3.998 159.626 4.694C159.626 5.102 159.566 5.504 159.446 5.9C159.338 6.296 159.134 6.716 158.834 7.16C158.546 7.592 158.12 8.084 157.556 8.636L152.75 13.352L152.39 12.848H160.202V14H151.364ZM161.208 10.688V9.752L167.886 1.4H169.326L162.702 9.752L162 9.536H172.134V10.688H161.208ZM168.318 14V10.688L168.354 9.536V6.62H169.614V14H168.318Z" fill="white"/>
</svg>
